<?xml version="1.0" encoding="UTF-8"?>
<svg xmlns="http://www.w3.org/2000/svg" xmlns:xlink="http://www.w3.org/1999/xlink" width="52.693393pt" height="70.866142pt" viewBox="0 0 52.693393 70.866142" version="1.1">
<g id="surface1">
<path style=" stroke:none;fill-rule:nonzero;fill:rgb(49.803162%,60.391235%,68.626404%);fill-opacity:1;" d="M 28.09375 5.273438 L 28.09375 58.679688 C 29.289062 58.679688 30.417969 58.980469 31.410156 59.503906 C 41.351562 52.851562 45.773438 46.25 46.925781 39.421875 C 47.699219 33.359375 47.636719 24.074219 47.566406 11.734375 Z M 28.09375 5.273438 "/>
<path style=" stroke:none;fill-rule:nonzero;fill:rgb(55.293274%,68.234253%,6.274414%);fill-opacity:1;" d="M 16.589844 0 L 13.195312 3.804688 L 9.769531 7.621094 L 14.800781 8.636719 L 19.792969 9.65625 L 16.9375 6.789062 L 28.089844 3.09375 L 49.683594 10.25 C 49.761719 23.722656 49.839844 33.105469 48.992188 39.734375 C 47.6875 47.503906 42.707031 54.871094 31.554688 62.0625 L 31.429688 62.144531 C 30.542969 61.34375 29.371094 60.859375 28.089844 60.859375 C 25.339844 60.859375 23.089844 63.109375 23.089844 65.863281 C 23.089844 68.613281 25.339844 70.867188 28.089844 70.867188 C 30.84375 70.867188 33.097656 68.613281 33.097656 65.863281 C 33.097656 65.445312 33.042969 65.042969 32.949219 64.65625 L 33.140625 64.53125 C 44.75 57.046875 50.449219 48.886719 51.898438 40.183594 C 51.898438 40.164062 51.898438 40.148438 51.902344 40.132812 C 52.828125 32.914062 52.722656 23.472656 52.640625 9.191406 C 52.636719 8.5625 52.234375 8.007812 51.640625 7.808594 L 28.550781 0.152344 C 28.25 0.0507812 27.925781 0.0507812 27.628906 0.152344 L 16.015625 4.003906 Z M 5.007812 4.199219 C 2.257812 4.199219 0 6.449219 0 9.203125 C 0 11.433594 1.484375 13.335938 3.511719 13.976562 C 3.449219 25.625 3.464844 33.75 4.28125 40.125 C 4.28125 40.144531 4.285156 40.164062 4.289062 40.183594 C 5.46875 47.289062 9.488281 54.046875 17.238281 60.347656 L 13.613281 62.246094 L 18.683594 62.769531 L 23.789062 63.3125 L 21.664062 58.640625 L 19.566406 53.996094 L 18.921875 57.929688 C 11.714844 52.03125 8.246094 46.023438 7.191406 39.730469 C 6.417969 33.667969 6.386719 25.617188 6.445312 13.992188 C 8.503906 13.371094 10.015625 11.453125 10.015625 9.203125 C 10.015625 6.449219 7.761719 4.199219 5.007812 4.199219 Z M 5.007812 6.398438 C 6.570312 6.398438 7.8125 7.640625 7.8125 9.203125 C 7.8125 10.765625 6.570312 12.003906 5.007812 12.003906 C 3.449219 12.003906 2.199219 10.765625 2.199219 9.203125 C 2.199219 7.640625 3.449219 6.398438 5.007812 6.398438 Z M 28.089844 63.058594 C 29.652344 63.058594 30.894531 64.300781 30.894531 65.863281 C 30.894531 67.421875 29.652344 68.664062 28.089844 68.664062 C 26.53125 68.664062 25.289062 67.421875 25.289062 65.863281 C 25.289062 64.300781 26.53125 63.058594 28.089844 63.058594 Z M 28.089844 63.058594 "/>
</g>
</svg>
