<?xml version="1.0" encoding="UTF-8"?>
<svg xmlns="http://www.w3.org/2000/svg" xmlns:xlink="http://www.w3.org/1999/xlink" width="318pt" height="71pt" viewBox="0 0 318 71" version="1.1">
<defs>
<clipPath id="clip1">
  <rect x="0" y="0" width="318" height="71"/>
</clipPath>
<g id="surface5" clip-path="url(#clip1)">
<path style=" stroke:none;fill-rule:nonzero;fill:rgb(0%,20.783997%,37.646484%);fill-opacity:1;" d="M 69.570312 61.617188 C 68.1875 61.617188 67.046875 61.246094 66.15625 60.507812 C 65.261719 59.765625 64.816406 58.75 64.816406 57.460938 C 64.816406 56.035156 65.347656 54.964844 66.410156 54.242188 C 67.472656 53.519531 68.707031 53.160156 70.113281 53.160156 L 74.183594 53.160156 L 74.183594 51.167969 C 74.183594 49.308594 73.046875 48.378906 70.765625 48.378906 C 69.820312 48.378906 69.011719 48.558594 68.347656 48.917969 C 67.703125 49.28125 67.378906 49.839844 67.378906 50.597656 L 67.378906 51.082031 L 65.445312 51.082031 L 65.445312 50.65625 C 65.445312 49.308594 65.964844 48.3125 67.007812 47.667969 C 68.074219 47.019531 69.355469 46.699219 70.851562 46.699219 C 72.464844 46.699219 73.777344 47.03125 74.78125 47.695312 C 75.808594 48.339844 76.320312 49.414062 76.320312 50.910156 L 76.320312 57.828125 C 76.320312 59.253906 76.386719 60.410156 76.519531 61.304688 L 74.441406 61.304688 C 74.421875 61.171875 74.402344 60.972656 74.382812 60.707031 C 74.363281 60.421875 74.34375 60.136719 74.328125 59.851562 C 74.308594 59.546875 74.296875 59.359375 74.296875 59.28125 L 74.242188 59.28125 C 73.292969 60.839844 71.734375 61.617188 69.570312 61.617188 Z M 70.140625 59.9375 C 71.507812 59.9375 72.523438 59.59375 73.1875 58.910156 C 73.851562 58.210938 74.183594 57.269531 74.183594 56.09375 L 74.183594 54.726562 L 70.484375 54.726562 C 68.109375 54.726562 66.925781 55.601562 66.925781 57.347656 C 66.925781 58.179688 67.226562 58.828125 67.835938 59.28125 C 68.441406 59.71875 69.210938 59.9375 70.140625 59.9375 Z M 80.246094 61.304688 L 80.246094 47.011719 L 82.296875 47.011719 L 82.296875 49.488281 L 82.355469 49.488281 C 82.847656 48.578125 83.503906 47.882812 84.320312 47.410156 C 85.152344 46.933594 86.066406 46.699219 87.050781 46.699219 C 88.53125 46.699219 89.660156 47.136719 90.441406 48.007812 C 91.238281 48.863281 91.636719 50 91.636719 51.425781 L 91.636719 61.304688 L 89.5 61.304688 L 89.5 52.222656 C 89.5 49.773438 88.464844 48.546875 86.398438 48.546875 C 85.277344 48.546875 84.320312 48.949219 83.523438 49.746094 C 82.742188 50.523438 82.355469 51.566406 82.355469 52.875 L 82.355469 61.304688 Z M 100.175781 61.671875 C 98.621094 61.671875 97.359375 61.21875 96.390625 60.308594 C 95.441406 59.375 94.964844 58.132812 94.964844 56.578125 L 94.964844 52.191406 C 94.964844 50.390625 95.488281 49.023438 96.53125 48.09375 C 97.59375 47.164062 98.894531 46.699219 100.433594 46.699219 C 101.34375 46.699219 102.179688 46.933594 102.9375 47.410156 C 103.714844 47.882812 104.257812 48.519531 104.5625 49.316406 L 104.644531 49.316406 L 104.644531 41.003906 L 106.753906 41.003906 L 106.753906 61.304688 L 104.703125 61.304688 L 104.703125 58.796875 L 104.644531 58.796875 C 104.191406 59.726562 103.535156 60.441406 102.683594 60.933594 C 101.828125 61.425781 100.992188 61.671875 100.175781 61.671875 Z M 100.773438 59.824219 C 101.78125 59.824219 102.671875 59.433594 103.449219 58.65625 C 104.246094 57.878906 104.644531 56.832031 104.644531 55.523438 L 104.644531 52.535156 C 104.644531 51.320312 104.265625 50.34375 103.507812 49.601562 C 102.75 48.863281 101.816406 48.492188 100.71875 48.492188 C 99.75 48.492188 98.90625 48.796875 98.183594 49.402344 C 97.460938 49.992188 97.101562 50.855469 97.101562 51.992188 L 97.101562 56.492188 C 97.101562 57.460938 97.433594 58.257812 98.097656 58.882812 C 98.78125 59.507812 99.671875 59.824219 100.773438 59.824219 Z M 117.96875 61.304688 L 117.96875 40.976562 L 130.753906 40.976562 L 130.753906 43.027344 L 120.277344 43.027344 L 120.277344 49.886719 L 128.929688 49.886719 L 128.929688 51.90625 L 120.277344 51.90625 L 120.277344 61.304688 Z M 137.527344 61.671875 C 135.726562 61.671875 134.265625 61.199219 133.144531 60.25 C 132.042969 59.28125 131.492188 57.914062 131.492188 56.148438 L 131.492188 52.449219 C 131.492188 50.644531 132.0625 49.242188 133.199219 48.234375 C 134.339844 47.230469 135.753906 46.726562 137.441406 46.726562 C 139.246094 46.726562 140.699219 47.230469 141.800781 48.234375 C 142.898438 49.242188 143.449219 50.636719 143.449219 52.421875 L 143.449219 55.921875 C 143.449219 57.726562 142.878906 59.140625 141.742188 60.164062 C 140.621094 61.171875 139.21875 61.671875 137.527344 61.671875 Z M 137.527344 59.851562 C 138.722656 59.851562 139.644531 59.527344 140.289062 58.882812 C 140.953125 58.238281 141.285156 57.28125 141.285156 56.007812 L 141.285156 52.222656 C 141.285156 51.101562 140.953125 50.210938 140.289062 49.546875 C 139.644531 48.863281 138.695312 48.519531 137.441406 48.519531 C 136.246094 48.519531 135.308594 48.863281 134.625 49.546875 C 133.960938 50.210938 133.628906 51.140625 133.628906 52.335938 L 133.628906 56.09375 C 133.628906 57.25 133.96875 58.171875 134.652344 58.855469 C 135.335938 59.519531 136.292969 59.851562 137.527344 59.851562 Z M 146.78125 61.304688 L 146.78125 47.011719 L 148.859375 47.011719 L 148.859375 49.886719 L 148.917969 49.886719 C 149.449219 48.824219 150.179688 48.046875 151.109375 47.550781 C 152.039062 47.039062 153.015625 46.785156 154.039062 46.785156 C 154.421875 46.785156 154.773438 46.8125 155.09375 46.867188 L 155.09375 48.863281 C 154.773438 48.804688 154.335938 48.777344 153.785156 48.777344 C 152.378906 48.777344 151.222656 49.195312 150.3125 50.027344 C 149.398438 50.84375 148.933594 52.003906 148.917969 53.503906 L 148.917969 61.304688 Z M 157.570312 61.304688 L 157.570312 47.011719 L 159.621094 47.011719 L 159.621094 49.488281 L 159.679688 49.488281 C 160.683594 47.628906 162.257812 46.699219 164.402344 46.699219 C 166.433594 46.699219 167.78125 47.648438 168.445312 49.546875 L 168.476562 49.546875 C 168.988281 48.632812 169.671875 47.933594 170.523438 47.4375 C 171.378906 46.945312 172.328125 46.699219 173.371094 46.699219 C 174.757812 46.699219 175.867188 47.105469 176.703125 47.921875 C 177.539062 48.738281 177.957031 49.839844 177.957031 51.226562 L 177.957031 61.304688 L 175.847656 61.304688 L 175.847656 52.222656 C 175.847656 49.773438 174.8125 48.546875 172.746094 48.546875 C 171.683594 48.546875 170.769531 48.949219 170.011719 49.746094 C 169.253906 50.523438 168.863281 51.492188 168.84375 52.648438 L 168.84375 61.304688 L 166.738281 61.304688 L 166.738281 52.164062 C 166.679688 49.753906 165.648438 48.546875 163.636719 48.546875 C 162.648438 48.546875 161.746094 48.917969 160.929688 49.660156 C 160.113281 50.398438 159.707031 51.40625 159.707031 52.675781 L 159.707031 61.304688 Z M 185.984375 61.617188 C 184.597656 61.617188 183.460938 61.246094 182.566406 60.507812 C 181.675781 59.765625 181.230469 58.75 181.230469 57.460938 C 181.230469 56.035156 181.761719 54.964844 182.824219 54.242188 C 183.886719 53.519531 185.121094 53.160156 186.523438 53.160156 L 190.59375 53.160156 L 190.59375 51.167969 C 190.59375 49.308594 189.457031 48.378906 187.179688 48.378906 C 186.230469 48.378906 185.421875 48.558594 184.757812 48.917969 C 184.113281 49.28125 183.792969 49.839844 183.792969 50.597656 L 183.792969 51.082031 L 181.855469 51.082031 L 181.855469 50.65625 C 181.855469 49.308594 182.378906 48.3125 183.421875 47.667969 C 184.484375 47.019531 185.765625 46.699219 187.265625 46.699219 C 188.878906 46.699219 190.1875 47.03125 191.195312 47.695312 C 192.21875 48.339844 192.730469 49.414062 192.730469 50.910156 L 192.730469 57.828125 C 192.730469 59.253906 192.796875 60.410156 192.929688 61.304688 L 190.851562 61.304688 C 190.832031 61.171875 190.8125 60.972656 190.792969 60.707031 C 190.777344 60.421875 190.757812 60.136719 190.738281 59.851562 C 190.71875 59.546875 190.710938 59.359375 190.710938 59.28125 L 190.652344 59.28125 C 189.703125 60.839844 188.148438 61.617188 185.984375 61.617188 Z M 186.554688 59.9375 C 187.917969 59.9375 188.933594 59.59375 189.597656 58.910156 C 190.261719 58.210938 190.59375 57.269531 190.59375 56.09375 L 190.59375 54.726562 L 186.894531 54.726562 C 184.523438 54.726562 183.335938 55.601562 183.335938 57.347656 C 183.335938 58.179688 183.640625 58.828125 184.246094 59.28125 C 184.855469 59.71875 185.621094 59.9375 186.554688 59.9375 Z M 199.960938 61.472656 C 197.78125 61.472656 196.6875 60.25 196.6875 57.800781 L 196.6875 40.976562 L 198.824219 40.976562 L 198.824219 57.886719 C 198.824219 58.417969 198.976562 58.84375 199.277344 59.167969 C 199.582031 59.492188 200.046875 59.652344 200.671875 59.652344 C 200.863281 59.652344 201.386719 59.605469 202.238281 59.507812 L 202.238281 61.132812 C 201.539062 61.359375 200.777344 61.472656 199.960938 61.472656 Z M 212.0625 61.304688 L 212.0625 41.003906 L 214.878906 41.003906 L 221.257812 53.445312 L 221.285156 53.445312 L 227.519531 41.003906 L 230.367188 41.003906 L 230.367188 61.304688 L 228.148438 61.304688 L 228.148438 45.019531 L 228.089844 45.019531 L 222.140625 56.605469 L 220.316406 56.605469 L 214.367188 45.046875 L 214.28125 45.046875 L 214.28125 61.304688 Z M 240.160156 61.671875 C 238.320312 61.671875 236.828125 61.179688 235.691406 60.191406 C 234.570312 59.207031 234.011719 57.761719 234.011719 55.867188 L 234.011719 52.847656 C 234.011719 50.929688 234.582031 49.429688 235.71875 48.347656 C 236.878906 47.269531 238.347656 46.726562 240.132812 46.726562 C 241.785156 46.726562 243.140625 47.21875 244.203125 48.207031 C 245.265625 49.175781 245.796875 50.550781 245.796875 52.335938 L 245.796875 54.585938 L 236.203125 54.585938 L 236.203125 56.066406 C 236.203125 57.222656 236.574219 58.144531 237.3125 58.828125 C 238.054688 59.507812 239.050781 59.851562 240.304688 59.851562 C 241.746094 59.851562 242.949219 59.242188 243.917969 58.027344 L 245.542969 58.996094 C 244.402344 60.78125 242.609375 61.671875 240.160156 61.671875 Z M 236.203125 53.105469 L 243.691406 53.105469 L 243.691406 52.277344 C 243.691406 51.160156 243.367188 50.246094 242.722656 49.546875 C 242.078125 48.84375 241.175781 48.492188 240.019531 48.492188 C 238.878906 48.492188 237.960938 48.871094 237.257812 49.628906 C 236.554688 50.371094 236.203125 51.320312 236.203125 52.476562 Z M 253.742188 61.558594 C 252.695312 61.558594 251.84375 61.304688 251.179688 60.789062 C 250.515625 60.277344 250.183594 59.453125 250.183594 58.3125 L 250.183594 48.75 L 247.707031 48.75 L 247.707031 47.039062 L 250.183594 47.039062 L 250.183594 42.570312 L 252.289062 42.570312 L 252.289062 47.039062 L 256.246094 47.039062 L 256.246094 48.75 L 252.289062 48.75 L 252.289062 57.773438 C 252.289062 58.457031 252.449219 58.941406 252.773438 59.226562 C 253.113281 59.492188 253.628906 59.625 254.308594 59.625 C 254.878906 59.625 255.574219 59.539062 256.386719 59.367188 L 256.386719 61.1875 C 255.628906 61.4375 254.746094 61.558594 253.742188 61.558594 Z M 259.121094 61.304688 L 259.121094 40.976562 L 261.226562 40.976562 L 261.226562 49.488281 L 261.3125 49.488281 C 261.789062 48.597656 262.433594 47.914062 263.25 47.4375 C 264.085938 46.945312 264.976562 46.699219 265.925781 46.699219 C 267.40625 46.699219 268.535156 47.136719 269.3125 48.007812 C 270.109375 48.863281 270.507812 50 270.507812 51.425781 L 270.507812 61.304688 L 268.375 61.304688 L 268.375 52.222656 C 268.375 49.773438 267.339844 48.546875 265.269531 48.546875 C 264.152344 48.546875 263.191406 48.949219 262.394531 49.746094 C 261.617188 50.523438 261.226562 51.566406 261.226562 52.875 L 261.226562 61.304688 Z M 279.875 61.671875 C 278.074219 61.671875 276.613281 61.199219 275.492188 60.25 C 274.390625 59.28125 273.839844 57.914062 273.839844 56.148438 L 273.839844 52.449219 C 273.839844 50.644531 274.410156 49.242188 275.546875 48.234375 C 276.6875 47.230469 278.101562 46.726562 279.789062 46.726562 C 281.59375 46.726562 283.046875 47.230469 284.144531 48.234375 C 285.246094 49.242188 285.796875 50.636719 285.796875 52.421875 L 285.796875 55.921875 C 285.796875 57.726562 285.226562 59.140625 284.089844 60.164062 C 282.96875 61.171875 281.566406 61.671875 279.875 61.671875 Z M 279.875 59.851562 C 281.070312 59.851562 281.992188 59.527344 282.636719 58.882812 C 283.300781 58.238281 283.632812 57.28125 283.632812 56.007812 L 283.632812 52.222656 C 283.632812 51.101562 283.300781 50.210938 282.636719 49.546875 C 281.992188 48.863281 281.042969 48.519531 279.789062 48.519531 C 278.59375 48.519531 277.65625 48.863281 276.972656 49.546875 C 276.308594 50.210938 275.976562 51.140625 275.976562 52.335938 L 275.976562 56.09375 C 275.976562 57.25 276.316406 58.171875 277 58.855469 C 277.683594 59.519531 278.640625 59.851562 279.875 59.851562 Z M 293.769531 61.671875 C 292.210938 61.671875 290.949219 61.21875 289.984375 60.308594 C 289.035156 59.375 288.558594 58.132812 288.558594 56.578125 L 288.558594 52.191406 C 288.558594 50.390625 289.082031 49.023438 290.125 48.09375 C 291.1875 47.164062 292.488281 46.699219 294.023438 46.699219 C 294.9375 46.699219 295.769531 46.933594 296.53125 47.410156 C 297.308594 47.882812 297.851562 48.519531 298.152344 49.316406 L 298.238281 49.316406 L 298.238281 41.003906 L 300.34375 41.003906 L 300.34375 61.304688 L 298.296875 61.304688 L 298.296875 58.796875 L 298.238281 58.796875 C 297.78125 59.726562 297.128906 60.441406 296.273438 60.933594 C 295.421875 61.425781 294.585938 61.671875 293.769531 61.671875 Z M 294.367188 59.824219 C 295.371094 59.824219 296.265625 59.433594 297.042969 58.65625 C 297.839844 57.878906 298.238281 56.832031 298.238281 55.523438 L 298.238281 52.535156 C 298.238281 51.320312 297.859375 50.34375 297.101562 49.601562 C 296.339844 48.863281 295.410156 48.492188 294.308594 48.492188 C 293.34375 48.492188 292.496094 48.796875 291.777344 49.402344 C 291.054688 49.992188 290.695312 50.855469 290.695312 51.992188 L 290.695312 56.492188 C 290.695312 57.460938 291.027344 58.257812 291.691406 58.882812 C 292.375 59.507812 293.265625 59.824219 294.367188 59.824219 Z M 309.3125 61.644531 C 306.675781 61.644531 304.738281 60.886719 303.503906 59.367188 L 304.957031 58.171875 C 306.097656 59.347656 307.539062 59.9375 309.285156 59.9375 C 310.214844 59.9375 311.023438 59.707031 311.703125 59.253906 C 312.40625 58.796875 312.757812 58.171875 312.757812 57.375 C 312.757812 56.613281 312.53125 56.074219 312.074219 55.75 C 311.621094 55.429688 310.859375 55.164062 309.796875 54.953125 L 308.144531 54.613281 C 305.46875 54.082031 304.132812 52.855469 304.132812 50.941406 C 304.132812 49.6875 304.597656 48.664062 305.527344 47.867188 C 306.476562 47.070312 307.71875 46.667969 309.257812 46.667969 C 311.535156 46.667969 313.195312 47.269531 314.238281 48.464844 L 312.785156 49.574219 C 311.835938 48.738281 310.621094 48.320312 309.140625 48.320312 C 308.269531 48.320312 307.558594 48.539062 307.007812 48.976562 C 306.476562 49.394531 306.210938 49.945312 306.210938 50.628906 C 306.210938 51.273438 306.457031 51.746094 306.949219 52.050781 C 307.445312 52.355469 308.230469 52.621094 309.3125 52.847656 L 311.449219 53.304688 C 313.78125 53.816406 314.949219 55.050781 314.949219 57.003906 C 314.949219 58.464844 314.382812 59.605469 313.242188 60.421875 C 312.121094 61.238281 310.8125 61.644531 309.3125 61.644531 Z M 309.3125 61.644531 "/>
<path style=" stroke:none;fill-rule:nonzero;fill:rgb(0%,20.783997%,37.646484%);fill-opacity:1;" d="M 64.277344 29.988281 L 71.878906 9.632812 L 74.011719 9.632812 L 81.5 29.988281 L 79.082031 29.988281 L 77.003906 24.09375 L 68.71875 24.09375 L 66.582031 29.988281 Z M 69.371094 22.15625 L 76.347656 22.15625 L 72.902344 12.390625 L 72.875 12.390625 Z M 84.207031 29.988281 L 84.207031 15.695312 L 86.285156 15.695312 L 86.285156 18.570312 L 86.339844 18.570312 C 86.871094 17.507812 87.601562 16.730469 88.53125 16.234375 C 89.460938 15.722656 90.441406 15.46875 91.464844 15.46875 C 91.84375 15.46875 92.195312 15.496094 92.519531 15.550781 L 92.519531 17.546875 C 92.195312 17.488281 91.757812 17.460938 91.207031 17.460938 C 89.804688 17.460938 88.644531 17.878906 87.734375 18.710938 C 86.824219 19.527344 86.359375 20.6875 86.339844 22.1875 L 86.339844 29.988281 Z M 100.121094 30.242188 C 99.074219 30.242188 98.222656 29.988281 97.558594 29.472656 C 96.894531 28.960938 96.5625 28.136719 96.5625 26.996094 L 96.5625 17.433594 L 94.085938 17.433594 L 94.085938 15.722656 L 96.5625 15.722656 L 96.5625 11.253906 L 98.667969 11.253906 L 98.667969 15.722656 L 102.625 15.722656 L 102.625 17.433594 L 98.667969 17.433594 L 98.667969 26.457031 C 98.667969 27.140625 98.828125 27.625 99.152344 27.910156 C 99.492188 28.175781 100.003906 28.308594 100.6875 28.308594 C 101.257812 28.308594 101.949219 28.222656 102.765625 28.050781 L 102.765625 29.871094 C 102.007812 30.121094 101.125 30.242188 100.121094 30.242188 Z M 105.5 29.988281 L 105.5 15.695312 L 107.605469 15.695312 L 107.605469 29.988281 Z M 105.5 12.792969 L 105.5 9.6875 L 107.605469 9.6875 L 107.605469 12.792969 Z M 113.015625 29.988281 L 113.015625 17.402344 L 110.484375 17.402344 L 110.484375 15.722656 L 113.015625 15.722656 L 113.015625 13.273438 C 113.015625 11.964844 113.347656 10.96875 114.011719 10.285156 C 114.675781 9.582031 115.636719 9.234375 116.886719 9.234375 C 117.4375 9.234375 117.960938 9.289062 118.453125 9.402344 L 118.453125 11.253906 C 118.054688 11.160156 117.589844 11.113281 117.058594 11.113281 C 115.769531 11.113281 115.121094 11.792969 115.121094 13.160156 L 115.121094 15.722656 L 118.367188 15.722656 L 118.367188 17.402344 L 115.121094 17.402344 L 115.121094 29.988281 Z M 120.902344 29.988281 L 120.902344 15.695312 L 123.007812 15.695312 L 123.007812 29.988281 Z M 120.902344 12.59375 L 120.902344 9.488281 L 123.007812 9.488281 L 123.007812 12.59375 Z M 132.460938 30.355469 C 130.65625 30.355469 129.207031 29.855469 128.105469 28.847656 C 127.023438 27.824219 126.480469 26.398438 126.480469 24.578125 L 126.480469 21.390625 C 126.480469 19.527344 127.023438 18.066406 128.105469 17.003906 C 129.207031 15.941406 130.640625 15.410156 132.402344 15.410156 C 134.074219 15.410156 135.429688 15.855469 136.476562 16.75 C 137.519531 17.640625 138.039062 18.84375 138.039062 20.363281 L 138.039062 20.734375 L 135.992188 20.734375 L 135.992188 20.25 C 135.992188 19.394531 135.679688 18.675781 135.050781 18.085938 C 134.425781 17.480469 133.550781 17.175781 132.433594 17.175781 C 131.273438 17.175781 130.355469 17.546875 129.671875 18.285156 C 129.007812 19.007812 128.675781 19.976562 128.675781 21.191406 L 128.675781 24.632812 C 128.675781 25.832031 128.996094 26.777344 129.640625 27.480469 C 130.289062 28.183594 131.226562 28.535156 132.460938 28.535156 C 133.582031 28.535156 134.445312 28.242188 135.050781 27.652344 C 135.679688 27.0625 135.992188 26.34375 135.992188 25.488281 L 135.992188 25.089844 L 138.039062 25.089844 L 138.039062 25.402344 C 138.039062 26.921875 137.527344 28.125 136.503906 29.019531 C 135.480469 29.910156 134.132812 30.355469 132.460938 30.355469 Z M 141.117188 29.988281 L 141.117188 15.695312 L 143.222656 15.695312 L 143.222656 29.988281 Z M 141.117188 12.792969 L 141.117188 9.6875 L 143.222656 9.6875 L 143.222656 12.792969 Z M 151.335938 30.300781 C 149.949219 30.300781 148.8125 29.929688 147.917969 29.191406 C 147.027344 28.449219 146.582031 27.433594 146.582031 26.144531 C 146.582031 24.71875 147.113281 23.648438 148.175781 22.925781 C 149.238281 22.203125 150.472656 21.84375 151.878906 21.84375 L 155.949219 21.84375 L 155.949219 19.851562 C 155.949219 17.992188 154.808594 17.0625 152.53125 17.0625 C 151.582031 17.0625 150.777344 17.242188 150.113281 17.601562 C 149.464844 17.964844 149.144531 18.523438 149.144531 19.28125 L 149.144531 19.765625 L 147.207031 19.765625 L 147.207031 19.339844 C 147.207031 17.992188 147.730469 16.996094 148.773438 16.351562 C 149.835938 15.703125 151.117188 15.382812 152.617188 15.382812 C 154.230469 15.382812 155.539062 15.714844 156.546875 16.378906 C 157.570312 17.023438 158.082031 18.097656 158.082031 19.59375 L 158.082031 26.511719 C 158.082031 27.9375 158.148438 29.09375 158.28125 29.988281 L 156.203125 29.988281 C 156.183594 29.855469 156.167969 29.65625 156.148438 29.390625 C 156.128906 29.105469 156.109375 28.820312 156.089844 28.535156 C 156.070312 28.230469 156.0625 28.042969 156.0625 27.964844 L 156.003906 27.964844 C 155.054688 29.523438 153.5 30.300781 151.335938 30.300781 Z M 151.90625 28.621094 C 153.273438 28.621094 154.289062 28.277344 154.953125 27.59375 C 155.617188 26.894531 155.949219 25.953125 155.949219 24.777344 L 155.949219 23.410156 L 152.246094 23.410156 C 149.875 23.410156 148.6875 24.285156 148.6875 26.03125 C 148.6875 26.863281 148.992188 27.511719 149.597656 27.964844 C 150.207031 28.402344 150.976562 28.621094 151.90625 28.621094 Z M 165.316406 30.15625 C 163.132812 30.15625 162.039062 28.933594 162.039062 26.484375 L 162.039062 9.660156 L 164.175781 9.660156 L 164.175781 26.570312 C 164.175781 27.101562 164.328125 27.527344 164.632812 27.851562 C 164.933594 28.175781 165.398438 28.335938 166.027344 28.335938 C 166.214844 28.335938 166.738281 28.289062 167.59375 28.191406 L 167.59375 29.816406 C 166.890625 30.042969 166.128906 30.15625 165.316406 30.15625 Z M 177.414062 29.988281 L 177.414062 9.6875 L 179.71875 9.6875 L 179.71875 29.988281 Z M 184.046875 29.988281 L 184.046875 15.695312 L 186.097656 15.695312 L 186.097656 18.171875 L 186.15625 18.171875 C 186.648438 17.261719 187.300781 16.566406 188.117188 16.09375 C 188.953125 15.617188 189.863281 15.382812 190.851562 15.382812 C 192.332031 15.382812 193.460938 15.820312 194.238281 16.691406 C 195.035156 17.546875 195.433594 18.683594 195.433594 20.109375 L 195.433594 29.988281 L 193.300781 29.988281 L 193.300781 20.90625 C 193.300781 18.457031 192.265625 17.230469 190.195312 17.230469 C 189.078125 17.230469 188.117188 17.632812 187.320312 18.429688 C 186.542969 19.207031 186.15625 20.25 186.15625 21.558594 L 186.15625 29.988281 Z M 203.976562 30.242188 C 202.933594 30.242188 202.078125 29.988281 201.414062 29.472656 C 200.75 28.960938 200.417969 28.136719 200.417969 26.996094 L 200.417969 17.433594 L 197.941406 17.433594 L 197.941406 15.722656 L 200.417969 15.722656 L 200.417969 11.253906 L 202.523438 11.253906 L 202.523438 15.722656 L 206.480469 15.722656 L 206.480469 17.433594 L 202.523438 17.433594 L 202.523438 26.457031 C 202.523438 27.140625 202.6875 27.625 203.007812 27.910156 C 203.351562 28.175781 203.863281 28.308594 204.546875 28.308594 C 205.113281 28.308594 205.808594 28.222656 206.625 28.050781 L 206.625 29.871094 C 205.863281 30.121094 204.980469 30.242188 203.976562 30.242188 Z M 214.824219 30.355469 C 212.980469 30.355469 211.492188 29.863281 210.351562 28.875 C 209.234375 27.890625 208.671875 26.445312 208.671875 24.550781 L 208.671875 21.53125 C 208.671875 19.613281 209.242188 18.113281 210.382812 17.03125 C 211.539062 15.953125 213.011719 15.410156 214.792969 15.410156 C 216.445312 15.410156 217.804688 15.902344 218.867188 16.890625 C 219.929688 17.859375 220.460938 19.234375 220.460938 21.019531 L 220.460938 23.269531 L 210.867188 23.269531 L 210.867188 24.75 C 210.867188 25.90625 211.234375 26.828125 211.976562 27.511719 C 212.714844 28.191406 213.710938 28.535156 214.964844 28.535156 C 216.40625 28.535156 217.613281 27.925781 218.582031 26.710938 L 220.203125 27.679688 C 219.066406 29.464844 217.269531 30.355469 214.824219 30.355469 Z M 210.867188 21.789062 L 218.351562 21.789062 L 218.351562 20.960938 C 218.351562 19.84375 218.03125 18.929688 217.386719 18.230469 C 216.738281 17.527344 215.839844 17.175781 214.679688 17.175781 C 213.542969 17.175781 212.621094 17.554688 211.917969 18.3125 C 211.21875 19.054688 210.867188 20.003906 210.867188 21.160156 Z M 227.179688 30.15625 C 224.996094 30.15625 223.90625 28.933594 223.90625 26.484375 L 223.90625 9.660156 L 226.039062 9.660156 L 226.039062 26.570312 C 226.039062 27.101562 226.191406 27.527344 226.496094 27.851562 C 226.800781 28.175781 227.265625 28.335938 227.890625 28.335938 C 228.082031 28.335938 228.601562 28.289062 229.457031 28.191406 L 229.457031 29.816406 C 228.753906 30.042969 227.996094 30.15625 227.179688 30.15625 Z M 235.550781 30.15625 C 233.367188 30.15625 232.273438 28.933594 232.273438 26.484375 L 232.273438 9.660156 L 234.410156 9.660156 L 234.410156 26.570312 C 234.410156 27.101562 234.5625 27.527344 234.867188 27.851562 C 235.167969 28.175781 235.632812 28.335938 236.261719 28.335938 C 236.449219 28.335938 236.972656 28.289062 237.828125 28.191406 L 237.828125 29.816406 C 237.125 30.042969 236.363281 30.15625 235.550781 30.15625 Z M 240.617188 29.988281 L 240.617188 15.695312 L 242.722656 15.695312 L 242.722656 29.988281 Z M 240.617188 12.792969 L 240.617188 9.6875 L 242.722656 9.6875 L 242.722656 12.792969 Z M 251.691406 35.792969 C 250.570312 35.792969 249.535156 35.566406 248.589844 35.109375 C 247.65625 34.65625 246.957031 33.980469 246.480469 33.089844 L 248.417969 32.265625 C 249.253906 33.480469 250.402344 34.085938 251.863281 34.085938 C 253.09375 34.085938 254.074219 33.714844 254.792969 32.976562 C 255.515625 32.234375 255.875 31.230469 255.875 29.957031 L 255.875 27.226562 C 254.964844 28.953125 253.484375 29.816406 251.433594 29.816406 C 249.820312 29.816406 248.550781 29.371094 247.621094 28.476562 C 246.691406 27.566406 246.226562 26.324219 246.226562 24.75 L 246.226562 20.875 C 246.226562 19.128906 246.738281 17.78125 247.761719 16.832031 C 248.804688 15.867188 250.058594 15.382812 251.519531 15.382812 C 252.414062 15.382812 253.277344 15.609375 254.109375 16.066406 C 254.945312 16.519531 255.535156 17.183594 255.875 18.058594 L 255.875 15.695312 L 257.925781 15.695312 L 257.925781 29.671875 C 257.925781 31.4375 257.386719 32.898438 256.304688 34.058594 C 255.222656 35.214844 253.683594 35.792969 251.691406 35.792969 Z M 252.03125 28.109375 C 253.058594 28.109375 253.949219 27.757812 254.707031 27.054688 C 255.488281 26.332031 255.875 25.289062 255.875 23.921875 L 255.875 21.074219 C 255.875 19.898438 255.488281 18.960938 254.707031 18.257812 C 253.929688 17.554688 253.019531 17.203125 251.976562 17.203125 C 251.007812 17.203125 250.164062 17.507812 249.441406 18.113281 C 248.738281 18.703125 248.386719 19.578125 248.386719 20.734375 L 248.386719 24.777344 C 248.386719 25.765625 248.710938 26.570312 249.355469 27.195312 C 250.019531 27.804688 250.914062 28.109375 252.03125 28.109375 Z M 267.492188 30.355469 C 265.652344 30.355469 264.160156 29.863281 263.023438 28.875 C 261.902344 27.890625 261.34375 26.445312 261.34375 24.550781 L 261.34375 21.53125 C 261.34375 19.613281 261.910156 18.113281 263.050781 17.03125 C 264.207031 15.953125 265.679688 15.410156 267.464844 15.410156 C 269.113281 15.410156 270.472656 15.902344 271.535156 16.890625 C 272.597656 17.859375 273.128906 19.234375 273.128906 21.019531 L 273.128906 23.269531 L 263.535156 23.269531 L 263.535156 24.75 C 263.535156 25.90625 263.90625 26.828125 264.644531 27.511719 C 265.386719 28.191406 266.382812 28.535156 267.632812 28.535156 C 269.078125 28.535156 270.28125 27.925781 271.25 26.710938 L 272.871094 27.679688 C 271.734375 29.464844 269.941406 30.355469 267.492188 30.355469 Z M 263.535156 21.789062 L 271.023438 21.789062 L 271.023438 20.960938 C 271.023438 19.84375 270.699219 18.929688 270.054688 18.230469 C 269.410156 17.527344 268.507812 17.175781 267.347656 17.175781 C 266.210938 17.175781 265.289062 17.554688 264.585938 18.3125 C 263.886719 19.054688 263.535156 20.003906 263.535156 21.160156 Z M 276.546875 29.988281 L 276.546875 15.695312 L 278.59375 15.695312 L 278.59375 18.171875 L 278.652344 18.171875 C 279.144531 17.261719 279.800781 16.566406 280.617188 16.09375 C 281.453125 15.617188 282.363281 15.382812 283.347656 15.382812 C 284.828125 15.382812 285.957031 15.820312 286.738281 16.691406 C 287.535156 17.546875 287.933594 18.683594 287.933594 20.109375 L 287.933594 29.988281 L 285.796875 29.988281 L 285.796875 20.90625 C 285.796875 18.457031 284.761719 17.230469 282.695312 17.230469 C 281.574219 17.230469 280.617188 17.632812 279.820312 18.429688 C 279.039062 19.207031 278.652344 20.25 278.652344 21.558594 L 278.652344 29.988281 Z M 297.242188 30.355469 C 295.4375 30.355469 293.988281 29.855469 292.886719 28.847656 C 291.804688 27.824219 291.261719 26.398438 291.261719 24.578125 L 291.261719 21.390625 C 291.261719 19.527344 291.804688 18.066406 292.886719 17.003906 C 293.988281 15.941406 295.421875 15.410156 297.183594 15.410156 C 298.855469 15.410156 300.210938 15.855469 301.257812 16.75 C 302.300781 17.640625 302.820312 18.84375 302.820312 20.363281 L 302.820312 20.734375 L 300.773438 20.734375 L 300.773438 20.25 C 300.773438 19.394531 300.460938 18.675781 299.832031 18.085938 C 299.207031 17.480469 298.332031 17.175781 297.214844 17.175781 C 296.054688 17.175781 295.136719 17.546875 294.453125 18.285156 C 293.789062 19.007812 293.457031 19.976562 293.457031 21.191406 L 293.457031 24.632812 C 293.457031 25.832031 293.777344 26.777344 294.421875 27.480469 C 295.070312 28.183594 296.007812 28.535156 297.242188 28.535156 C 298.363281 28.535156 299.226562 28.242188 299.832031 27.652344 C 300.460938 27.0625 300.773438 26.34375 300.773438 25.488281 L 300.773438 25.089844 L 302.820312 25.089844 L 302.820312 25.402344 C 302.820312 26.921875 302.308594 28.125 301.285156 29.019531 C 300.261719 29.910156 298.914062 30.355469 297.242188 30.355469 Z M 311.363281 30.355469 C 309.523438 30.355469 308.03125 29.863281 306.894531 28.875 C 305.773438 27.890625 305.214844 26.445312 305.214844 24.550781 L 305.214844 21.53125 C 305.214844 19.613281 305.78125 18.113281 306.921875 17.03125 C 308.078125 15.953125 309.550781 15.410156 311.335938 15.410156 C 312.984375 15.410156 314.34375 15.902344 315.40625 16.890625 C 316.46875 17.859375 317 19.234375 317 21.019531 L 317 23.269531 L 307.40625 23.269531 L 307.40625 24.75 C 307.40625 25.90625 307.777344 26.828125 308.515625 27.511719 C 309.257812 28.191406 310.253906 28.535156 311.503906 28.535156 C 312.949219 28.535156 314.152344 27.925781 315.121094 26.710938 L 316.742188 27.679688 C 315.605469 29.464844 313.8125 30.355469 311.363281 30.355469 Z M 307.40625 21.789062 L 314.894531 21.789062 L 314.894531 20.960938 C 314.894531 19.84375 314.570312 18.929688 313.925781 18.230469 C 313.28125 17.527344 312.378906 17.175781 311.222656 17.175781 C 310.082031 17.175781 309.160156 17.554688 308.460938 18.3125 C 307.757812 19.054688 307.40625 20.003906 307.40625 21.160156 Z M 307.40625 21.789062 "/>
<path style=" stroke:none;fill-rule:nonzero;fill:rgb(49.803162%,60.391235%,68.626404%);fill-opacity:1;" d="M 28.738281 5.304688 L 28.738281 58.710938 L 28.742188 58.710938 C 29.933594 58.710938 31.0625 59.007812 32.058594 59.535156 C 42 52.878906 46.417969 46.277344 47.574219 39.453125 C 48.347656 33.390625 48.28125 24.101562 48.214844 11.761719 Z M 28.738281 5.304688 "/>
<path style=" stroke:none;fill-rule:nonzero;fill:rgb(55.293274%,68.234253%,6.274414%);fill-opacity:1;" d="M 17.238281 0.03125 L 13.84375 3.832031 L 10.414062 7.652344 L 15.445312 8.664062 L 20.441406 9.6875 L 17.582031 6.820312 L 28.738281 3.121094 L 50.332031 10.28125 C 50.410156 23.75 50.488281 33.132812 49.636719 39.765625 C 48.335938 47.535156 43.351562 54.902344 32.199219 62.09375 L 32.078125 62.171875 C 31.1875 61.375 30.015625 60.886719 28.738281 60.886719 C 25.988281 60.886719 23.734375 63.140625 23.734375 65.890625 C 23.734375 68.644531 25.988281 70.894531 28.738281 70.894531 C 31.488281 70.894531 33.742188 68.644531 33.742188 65.890625 C 33.742188 65.476562 33.691406 65.074219 33.59375 64.6875 L 33.789062 64.5625 C 45.398438 57.078125 51.097656 48.917969 52.542969 40.210938 C 52.546875 40.195312 52.546875 40.179688 52.550781 40.160156 C 53.476562 32.941406 53.371094 23.503906 53.289062 9.21875 C 53.285156 8.59375 52.882812 8.039062 52.285156 7.839844 L 29.199219 0.179688 C 28.898438 0.0820312 28.574219 0.0820312 28.273438 0.179688 L 16.660156 4.03125 Z M 5.65625 4.226562 C 2.90625 4.226562 0.648438 6.480469 0.648438 9.234375 C 0.648438 11.464844 2.132812 13.363281 4.160156 14.003906 C 4.097656 25.65625 4.109375 33.777344 4.929688 40.15625 C 4.929688 40.175781 4.929688 40.195312 4.933594 40.210938 C 6.113281 47.320312 10.136719 54.078125 17.882812 60.378906 L 14.261719 62.273438 L 19.332031 62.800781 L 24.433594 63.34375 L 22.308594 58.671875 L 20.210938 54.023438 L 19.570312 57.960938 C 12.363281 52.0625 8.894531 46.050781 7.839844 39.757812 C 7.0625 33.695312 7.03125 25.648438 7.09375 14.023438 C 9.152344 13.402344 10.660156 11.484375 10.660156 9.230469 C 10.660156 6.480469 8.40625 4.226562 5.65625 4.226562 Z M 5.65625 6.429688 C 7.21875 6.429688 8.460938 7.671875 8.460938 9.234375 C 8.460938 10.792969 7.21875 12.035156 5.65625 12.035156 C 4.09375 12.035156 2.847656 10.792969 2.847656 9.234375 C 2.847656 7.671875 4.09375 6.429688 5.65625 6.429688 Z M 28.738281 63.089844 C 30.300781 63.089844 31.542969 64.328125 31.542969 65.890625 C 31.542969 67.453125 30.300781 68.695312 28.738281 68.695312 C 27.175781 68.695312 25.9375 67.453125 25.9375 65.890625 C 25.9375 64.328125 27.175781 63.089844 28.738281 63.089844 Z M 28.738281 63.089844 "/>
</g>
</defs>
<g id="surface1">
<use xlink:href="#surface5"/>
</g>
</svg>
