<?xml version="1.0" encoding="UTF-8"?>
<svg xmlns="http://www.w3.org/2000/svg" xmlns:xlink="http://www.w3.org/1999/xlink" width="106.028231pt" height="70.866142pt" viewBox="0 0 106.028231 70.866142" version="1.1">
<defs>
<clipPath id="clip1">
  <path d="M 63 36 L 106.027344 36 L 106.027344 62 L 63 62 Z M 63 36 "/>
</clipPath>
<clipPath id="clip2">
  <path d="M 97 9 L 106.027344 9 L 106.027344 35 L 97 35 Z M 97 9 "/>
</clipPath>
<clipPath id="clip3">
  <path d="M 0 0 L 53 0 L 53 70.867188 L 0 70.867188 Z M 0 0 "/>
</clipPath>
</defs>
<g id="surface1">
<g clip-path="url(#clip1)" clip-rule="nonzero">
<path style=" stroke:none;fill-rule:nonzero;fill:rgb(0%,20.783997%,37.646484%);fill-opacity:1;" d="M 63.582031 61.652344 L 63.582031 36.871094 L 79.167969 36.871094 L 79.167969 39.371094 L 66.394531 39.371094 L 66.394531 47.734375 L 76.945312 47.734375 L 76.945312 50.199219 L 66.394531 50.199219 L 66.394531 61.652344 Z M 83.710938 61.652344 L 83.710938 36.90625 L 87.144531 36.90625 L 94.921875 52.074219 L 94.957031 52.074219 L 102.558594 36.90625 L 106.027344 36.90625 L 106.027344 61.652344 L 103.320312 61.652344 L 103.320312 41.800781 L 103.25 41.800781 L 95.996094 55.925781 L 93.773438 55.925781 L 86.519531 41.832031 L 86.417969 41.832031 L 86.417969 61.652344 Z M 83.710938 61.652344 "/>
</g>
<g clip-path="url(#clip2)" clip-rule="nonzero">
<path style=" stroke:none;fill-rule:nonzero;fill:rgb(55.293274%,68.234253%,6.274414%);fill-opacity:1;" d="M 106.027344 34.03125 L 97.722656 30.949219 L 97.722656 29.53125 L 106.027344 26.472656 L 106.027344 28.109375 L 104.261719 28.714844 L 104.261719 31.878906 L 106.027344 32.507812 Z M 102.933594 31.449219 L 102.933594 29.15625 L 99.609375 30.285156 L 99.609375 30.308594 Z M 106.027344 24.757812 L 97.734375 24.757812 L 97.734375 23.257812 L 103.386719 19.648438 L 103.386719 19.625 L 97.734375 19.625 L 97.734375 18.136719 L 106.027344 18.136719 L 106.027344 19.648438 L 100.363281 23.242188 L 100.363281 23.269531 L 106.027344 23.269531 Z M 106.027344 15.714844 L 97.734375 15.714844 L 97.734375 12.480469 C 97.734375 11.558594 98.015625 10.78125 98.574219 10.15625 C 99.125 9.527344 99.851562 9.210938 100.757812 9.210938 L 102.96875 9.210938 C 103.90625 9.210938 104.652344 9.539062 105.203125 10.191406 C 105.753906 10.832031 106.027344 11.59375 106.027344 12.46875 Z M 104.667969 14.167969 L 104.667969 12.527344 C 104.667969 12.0625 104.535156 11.652344 104.273438 11.292969 C 104.007812 10.929688 103.605469 10.746094 103.0625 10.746094 L 100.667969 10.746094 C 100.1875 10.746094 99.804688 10.925781 99.527344 11.28125 C 99.238281 11.640625 99.097656 12.074219 99.097656 12.585938 L 99.097656 14.167969 Z M 104.667969 14.167969 "/>
</g>
<path style=" stroke:none;fill-rule:nonzero;fill:rgb(0%,20.783997%,37.646484%);fill-opacity:1;" d="M 63.8125 34.03125 L 73.082031 9.210938 L 75.683594 9.210938 L 84.8125 34.03125 L 81.863281 34.03125 L 79.328125 26.847656 L 69.230469 26.847656 L 66.625 34.03125 Z M 70.027344 24.484375 L 78.53125 24.484375 L 74.332031 12.578125 L 74.296875 12.578125 Z M 89.179688 34.03125 L 89.179688 9.28125 L 91.992188 9.28125 L 91.992188 34.03125 Z M 89.179688 34.03125 "/>
<path style=" stroke:none;fill-rule:nonzero;fill:rgb(49.803162%,60.391235%,68.626404%);fill-opacity:1;" d="M 28.09375 5.273438 L 28.09375 58.679688 C 29.289062 58.679688 30.417969 58.980469 31.410156 59.503906 C 41.351562 52.851562 45.773438 46.25 46.925781 39.421875 C 47.699219 33.359375 47.636719 24.074219 47.566406 11.734375 Z M 28.09375 5.273438 "/>
<g clip-path="url(#clip3)" clip-rule="nonzero">
<path style=" stroke:none;fill-rule:nonzero;fill:rgb(55.293274%,68.234253%,6.274414%);fill-opacity:1;" d="M 16.589844 0 L 13.195312 3.804688 L 9.769531 7.621094 L 14.800781 8.636719 L 19.792969 9.65625 L 16.9375 6.789062 L 28.089844 3.09375 L 49.683594 10.25 C 49.761719 23.722656 49.839844 33.105469 48.992188 39.734375 C 47.6875 47.503906 42.707031 54.871094 31.554688 62.0625 L 31.429688 62.144531 C 30.542969 61.34375 29.371094 60.859375 28.089844 60.859375 C 25.339844 60.859375 23.089844 63.109375 23.089844 65.863281 C 23.089844 68.613281 25.339844 70.867188 28.089844 70.867188 C 30.84375 70.867188 33.097656 68.613281 33.097656 65.863281 C 33.097656 65.445312 33.042969 65.042969 32.949219 64.65625 L 33.140625 64.53125 C 44.75 57.046875 50.449219 48.886719 51.898438 40.183594 C 51.898438 40.164062 51.898438 40.148438 51.902344 40.132812 C 52.828125 32.914062 52.722656 23.472656 52.640625 9.191406 C 52.636719 8.5625 52.234375 8.007812 51.640625 7.808594 L 28.550781 0.152344 C 28.25 0.0507812 27.925781 0.0507812 27.628906 0.152344 L 16.015625 4.003906 Z M 5.007812 4.199219 C 2.257812 4.199219 0 6.449219 0 9.203125 C 0 11.433594 1.484375 13.335938 3.511719 13.976562 C 3.449219 25.625 3.464844 33.75 4.28125 40.125 C 4.28125 40.144531 4.285156 40.164062 4.289062 40.183594 C 5.46875 47.289062 9.488281 54.046875 17.238281 60.347656 L 13.613281 62.246094 L 18.683594 62.769531 L 23.789062 63.3125 L 21.664062 58.640625 L 19.566406 53.996094 L 18.921875 57.929688 C 11.714844 52.03125 8.246094 46.023438 7.191406 39.730469 C 6.417969 33.667969 6.386719 25.617188 6.445312 13.992188 C 8.503906 13.371094 10.015625 11.453125 10.015625 9.203125 C 10.015625 6.449219 7.761719 4.199219 5.007812 4.199219 Z M 5.007812 6.398438 C 6.570312 6.398438 7.8125 7.640625 7.8125 9.203125 C 7.8125 10.765625 6.570312 12.003906 5.007812 12.003906 C 3.449219 12.003906 2.199219 10.765625 2.199219 9.203125 C 2.199219 7.640625 3.449219 6.398438 5.007812 6.398438 Z M 28.089844 63.058594 C 29.652344 63.058594 30.894531 64.300781 30.894531 65.863281 C 30.894531 67.421875 29.652344 68.664062 28.089844 68.664062 C 26.53125 68.664062 25.289062 67.421875 25.289062 65.863281 C 25.289062 64.300781 26.53125 63.058594 28.089844 63.058594 Z M 28.089844 63.058594 "/>
</g>
</g>
</svg>
